<mxfile host="app.diagrams.net" agent="Mozilla/5.0 (Windows NT 10.0; Win64; x64) AppleWebKit/537.36 (KHTML, like Gecko) Chrome/131.0.0.0 Safari/537.36" version="24.8.3">
  <diagram name="Page-1" id="ICDXCM8auZEVCqR2MpxK">
    <mxGraphModel dx="3457" dy="1300" grid="1" gridSize="10" guides="1" tooltips="1" connect="1" arrows="1" fold="1" page="1" pageScale="1" pageWidth="2336" pageHeight="1654" math="0" shadow="0">
      <root>
        <mxCell id="0" />
        <mxCell id="1" parent="0" />
        <mxCell id="mlIezlcVOvS0-Pfn6lKf-23" value="VPC (10.0.0.0/16)" style="points=[[0,0],[0.25,0],[0.5,0],[0.75,0],[1,0],[1,0.25],[1,0.5],[1,0.75],[1,1],[0.75,1],[0.5,1],[0.25,1],[0,1],[0,0.75],[0,0.5],[0,0.25]];outlineConnect=0;gradientColor=none;html=1;whiteSpace=wrap;fontSize=12;fontStyle=0;container=1;pointerEvents=0;collapsible=0;recursiveResize=0;shape=mxgraph.aws4.group;grIcon=mxgraph.aws4.group_vpc2;strokeColor=#8C4FFF;fillColor=none;verticalAlign=top;align=left;spacingLeft=30;fontColor=#AAB7B8;dashed=0;" vertex="1" parent="1">
          <mxGeometry x="480" y="430" width="700" height="640" as="geometry" />
        </mxCell>
        <mxCell id="mlIezlcVOvS0-Pfn6lKf-28" value="" style="sketch=0;outlineConnect=0;fontColor=#232F3E;gradientColor=none;fillColor=#8C4FFF;strokeColor=none;dashed=0;verticalLabelPosition=bottom;verticalAlign=top;align=center;html=1;fontSize=12;fontStyle=0;aspect=fixed;pointerEvents=1;shape=mxgraph.aws4.route_table;" vertex="1" parent="mlIezlcVOvS0-Pfn6lKf-23">
          <mxGeometry x="20" y="277.5" width="87.24" height="85" as="geometry" />
        </mxCell>
        <mxCell id="mlIezlcVOvS0-Pfn6lKf-49" value="" style="rounded=1;whiteSpace=wrap;html=1;dashed=1;strokeColor=#006600;fillColor=none;shadow=0;glass=0;strokeWidth=2;" vertex="1" parent="mlIezlcVOvS0-Pfn6lKf-23">
          <mxGeometry x="130" y="-70" width="520" height="800" as="geometry" />
        </mxCell>
        <mxCell id="mlIezlcVOvS0-Pfn6lKf-50" value="AZ:&amp;nbsp;us-east-1a" style="text;html=1;align=center;verticalAlign=middle;whiteSpace=wrap;rounded=0;" vertex="1" parent="mlIezlcVOvS0-Pfn6lKf-23">
          <mxGeometry x="150" y="-70" width="180" height="30" as="geometry" />
        </mxCell>
        <mxCell id="mlIezlcVOvS0-Pfn6lKf-27" style="edgeStyle=orthogonalEdgeStyle;rounded=0;orthogonalLoop=1;jettySize=auto;html=1;" edge="1" parent="1" source="mlIezlcVOvS0-Pfn6lKf-25" target="mlIezlcVOvS0-Pfn6lKf-28">
          <mxGeometry relative="1" as="geometry" />
        </mxCell>
        <mxCell id="mlIezlcVOvS0-Pfn6lKf-25" value="" style="sketch=0;points=[[0,0,0],[0.25,0,0],[0.5,0,0],[0.75,0,0],[1,0,0],[0,1,0],[0.25,1,0],[0.5,1,0],[0.75,1,0],[1,1,0],[0,0.25,0],[0,0.5,0],[0,0.75,0],[1,0.25,0],[1,0.5,0],[1,0.75,0]];outlineConnect=0;fontColor=#232F3E;fillColor=#8C4FFF;strokeColor=#ffffff;dashed=0;verticalLabelPosition=bottom;verticalAlign=top;align=center;html=1;fontSize=12;fontStyle=0;aspect=fixed;shape=mxgraph.aws4.resourceIcon;resIcon=mxgraph.aws4.api_gateway;" vertex="1" parent="1">
          <mxGeometry x="350" y="710" width="80" height="80" as="geometry" />
        </mxCell>
        <mxCell id="mlIezlcVOvS0-Pfn6lKf-24" value="Public subnet (10.0.1.0/24)" style="points=[[0,0],[0.25,0],[0.5,0],[0.75,0],[1,0],[1,0.25],[1,0.5],[1,0.75],[1,1],[0.75,1],[0.5,1],[0.25,1],[0,1],[0,0.75],[0,0.5],[0,0.25]];outlineConnect=0;gradientColor=none;html=1;whiteSpace=wrap;fontSize=12;fontStyle=0;container=1;pointerEvents=0;collapsible=0;recursiveResize=0;shape=mxgraph.aws4.group;grIcon=mxgraph.aws4.group_security_group;grStroke=0;strokeColor=#7AA116;fillColor=#F2F6E8;verticalAlign=top;align=left;spacingLeft=30;fontColor=#248814;dashed=0;" vertex="1" parent="1">
          <mxGeometry x="640" y="510" width="460" height="480" as="geometry" />
        </mxCell>
        <mxCell id="mlIezlcVOvS0-Pfn6lKf-30" value="Security Group: (HTTP: 80, Egress: All)" style="fillColor=none;strokeColor=#DD3522;verticalAlign=top;fontStyle=0;fontColor=#DD3522;whiteSpace=wrap;html=1;" vertex="1" parent="mlIezlcVOvS0-Pfn6lKf-24">
          <mxGeometry x="40" y="60" width="370" height="360" as="geometry" />
        </mxCell>
        <mxCell id="mlIezlcVOvS0-Pfn6lKf-29" style="edgeStyle=orthogonalEdgeStyle;rounded=0;orthogonalLoop=1;jettySize=auto;html=1;" edge="1" parent="1" source="mlIezlcVOvS0-Pfn6lKf-28" target="mlIezlcVOvS0-Pfn6lKf-24">
          <mxGeometry relative="1" as="geometry" />
        </mxCell>
        <mxCell id="mlIezlcVOvS0-Pfn6lKf-34" value="" style="whiteSpace=wrap;html=1;aspect=fixed;strokeColor=#ED7100;fillColor=none;" vertex="1" parent="1">
          <mxGeometry x="735" y="615" width="270" height="270" as="geometry" />
        </mxCell>
        <mxCell id="mlIezlcVOvS0-Pfn6lKf-35" value="" style="sketch=0;points=[[0,0,0],[0.25,0,0],[0.5,0,0],[0.75,0,0],[1,0,0],[0,1,0],[0.25,1,0],[0.5,1,0],[0.75,1,0],[1,1,0],[0,0.25,0],[0,0.5,0],[0,0.75,0],[1,0.25,0],[1,0.5,0],[1,0.75,0]];outlineConnect=0;fontColor=#232F3E;fillColor=#ED7100;strokeColor=#ffffff;dashed=0;verticalLabelPosition=bottom;verticalAlign=top;align=center;html=1;fontSize=12;fontStyle=0;aspect=fixed;shape=mxgraph.aws4.resourceIcon;resIcon=mxgraph.aws4.ecs;" vertex="1" parent="1">
          <mxGeometry x="735" y="615" width="45" height="45" as="geometry" />
        </mxCell>
        <UserObject label="&#xa;EC2 Instance (T2.micro Linux)&#xa;&#xa;" link="&#xa;EC2 Instance (T2.micro Linux)&#xa;&#xa;" id="mlIezlcVOvS0-Pfn6lKf-36">
          <mxCell style="sketch=0;points=[[0,0,0],[0.25,0,0],[0.5,0,0],[0.75,0,0],[1,0,0],[0,1,0],[0.25,1,0],[0.5,1,0],[0.75,1,0],[1,1,0],[0,0.25,0],[0,0.5,0],[0,0.75,0],[1,0.25,0],[1,0.5,0],[1,0.75,0]];outlineConnect=0;fontColor=#232F3E;fillColor=#ED7100;strokeColor=#ffffff;dashed=0;verticalLabelPosition=bottom;verticalAlign=top;align=center;html=1;fontSize=12;fontStyle=0;aspect=fixed;shape=mxgraph.aws4.resourceIcon;resIcon=mxgraph.aws4.ec2;" vertex="1" parent="1">
            <mxGeometry x="840" y="721" width="69" height="69" as="geometry" />
          </mxCell>
        </UserObject>
        <mxCell id="mlIezlcVOvS0-Pfn6lKf-39" value="ECS Cluster" style="text;html=1;align=center;verticalAlign=middle;whiteSpace=wrap;rounded=0;" vertex="1" parent="1">
          <mxGeometry x="750" y="622.5" width="140" height="30" as="geometry" />
        </mxCell>
        <mxCell id="mlIezlcVOvS0-Pfn6lKf-40" value="Route Table (0.0.0.0/0 via Internet Gateway)" style="text;html=1;align=center;verticalAlign=middle;whiteSpace=wrap;rounded=0;" vertex="1" parent="1">
          <mxGeometry x="490" y="760" width="80" height="130" as="geometry" />
        </mxCell>
        <mxCell id="mlIezlcVOvS0-Pfn6lKf-45" value="" style="endArrow=classic;html=1;rounded=0;entryX=0;entryY=0.5;entryDx=0;entryDy=0;entryPerimeter=0;" edge="1" parent="1" target="mlIezlcVOvS0-Pfn6lKf-25">
          <mxGeometry width="50" height="50" relative="1" as="geometry">
            <mxPoint x="120" y="750" as="sourcePoint" />
            <mxPoint x="1050" y="410" as="targetPoint" />
          </mxGeometry>
        </mxCell>
        <mxCell id="mlIezlcVOvS0-Pfn6lKf-48" style="edgeStyle=orthogonalEdgeStyle;rounded=0;orthogonalLoop=1;jettySize=auto;html=1;" edge="1" parent="1" source="mlIezlcVOvS0-Pfn6lKf-46" target="mlIezlcVOvS0-Pfn6lKf-43">
          <mxGeometry relative="1" as="geometry" />
        </mxCell>
        <mxCell id="mlIezlcVOvS0-Pfn6lKf-46" value="" style="sketch=0;outlineConnect=0;fontColor=#232F3E;gradientColor=none;fillColor=#ED7100;strokeColor=none;dashed=0;verticalLabelPosition=bottom;verticalAlign=top;align=center;html=1;fontSize=12;fontStyle=0;aspect=fixed;pointerEvents=1;shape=mxgraph.aws4.ecs_task;" vertex="1" parent="1">
          <mxGeometry x="920" y="622.5" width="50.1" height="65" as="geometry" />
        </mxCell>
        <mxCell id="mlIezlcVOvS0-Pfn6lKf-47" value="Task Definition" style="text;html=1;align=center;verticalAlign=middle;whiteSpace=wrap;rounded=0;" vertex="1" parent="1">
          <mxGeometry x="890.05" y="687.5" width="110" height="30" as="geometry" />
        </mxCell>
        <mxCell id="mlIezlcVOvS0-Pfn6lKf-58" value="AWS Cloud - Pipeline" style="points=[[0,0],[0.25,0],[0.5,0],[0.75,0],[1,0],[1,0.25],[1,0.5],[1,0.75],[1,1],[0.75,1],[0.5,1],[0.25,1],[0,1],[0,0.75],[0,0.5],[0,0.25]];outlineConnect=0;gradientColor=none;html=1;whiteSpace=wrap;fontSize=12;fontStyle=0;container=1;pointerEvents=0;collapsible=0;recursiveResize=0;shape=mxgraph.aws4.group;grIcon=mxgraph.aws4.group_aws_cloud_alt;strokeColor=#232F3E;fillColor=none;verticalAlign=top;align=left;spacingLeft=30;fontColor=#232F3E;dashed=0;" vertex="1" parent="1">
          <mxGeometry x="1540" y="340" width="360" height="870" as="geometry" />
        </mxCell>
        <mxCell id="mlIezlcVOvS0-Pfn6lKf-64" value="" style="rounded=0;whiteSpace=wrap;html=1;fillColor=none;strokeColor=#002AFF;dashed=1;dashPattern=12 12;glass=0;" vertex="1" parent="mlIezlcVOvS0-Pfn6lKf-58">
          <mxGeometry x="20" y="40" width="300" height="810" as="geometry" />
        </mxCell>
        <mxCell id="mlIezlcVOvS0-Pfn6lKf-62" value="" style="sketch=0;points=[[0,0,0],[0.25,0,0],[0.5,0,0],[0.75,0,0],[1,0,0],[0,1,0],[0.25,1,0],[0.5,1,0],[0.75,1,0],[1,1,0],[0,0.25,0],[0,0.5,0],[0,0.75,0],[1,0.25,0],[1,0.5,0],[1,0.75,0]];outlineConnect=0;fontColor=#232F3E;fillColor=#002AFF;strokeColor=#ffffff;dashed=0;verticalLabelPosition=bottom;verticalAlign=top;align=center;html=1;fontSize=12;fontStyle=0;aspect=fixed;shape=mxgraph.aws4.resourceIcon;resIcon=mxgraph.aws4.codepipeline;" vertex="1" parent="mlIezlcVOvS0-Pfn6lKf-58">
          <mxGeometry x="270" y="20" width="70" height="70" as="geometry" />
        </mxCell>
        <mxCell id="mlIezlcVOvS0-Pfn6lKf-66" value="AWS CodePipeline" style="text;html=1;align=center;verticalAlign=middle;whiteSpace=wrap;rounded=0;fontStyle=1" vertex="1" parent="mlIezlcVOvS0-Pfn6lKf-58">
          <mxGeometry x="240" y="90" width="120" height="30" as="geometry" />
        </mxCell>
        <mxCell id="mlIezlcVOvS0-Pfn6lKf-93" style="edgeStyle=orthogonalEdgeStyle;rounded=0;orthogonalLoop=1;jettySize=auto;html=1;exitX=0.5;exitY=1;exitDx=0;exitDy=0;exitPerimeter=0;entryX=1;entryY=0.5;entryDx=0;entryDy=0;" edge="1" parent="mlIezlcVOvS0-Pfn6lKf-58" source="mlIezlcVOvS0-Pfn6lKf-97" target="mlIezlcVOvS0-Pfn6lKf-70">
          <mxGeometry relative="1" as="geometry" />
        </mxCell>
        <mxCell id="mlIezlcVOvS0-Pfn6lKf-73" value="" style="sketch=0;points=[[0,0,0],[0.25,0,0],[0.5,0,0],[0.75,0,0],[1,0,0],[0,1,0],[0.25,1,0],[0.5,1,0],[0.75,1,0],[1,1,0],[0,0.25,0],[0,0.5,0],[0,0.75,0],[1,0.25,0],[1,0.5,0],[1,0.75,0]];outlineConnect=0;fontColor=#232F3E;fillColor=#002AFF;strokeColor=#ffffff;dashed=0;verticalLabelPosition=bottom;verticalAlign=top;align=center;html=1;fontSize=12;fontStyle=0;aspect=fixed;shape=mxgraph.aws4.resourceIcon;resIcon=mxgraph.aws4.codebuild;" vertex="1" parent="mlIezlcVOvS0-Pfn6lKf-58">
          <mxGeometry x="131" y="130" width="78" height="78" as="geometry" />
        </mxCell>
        <mxCell id="mlIezlcVOvS0-Pfn6lKf-70" value="" style="shape=image;verticalLabelPosition=bottom;labelBackgroundColor=default;verticalAlign=top;aspect=fixed;imageAspect=0;image=data:image/svg+xml,PHN2ZyB4bWxucz0iaHR0cDovL3d3dy53My5vcmcvMjAwMC9zdmciIHZpZXdCb3g9IjAgMCAzMiAzMiI+PGcgZmlsbD0iIzgxM2NmMyI+PHBhdGggZD0ibTEyLjA0MiA2Ljg1OCA4LjAyOSA0LjU5djkuMDE0bC04LjAyOS00LjU5NHoiLz48cGF0aCBkPSJtMjAuNSAyMC40MTUgNy45NTktNC41NzV2LTguOTUzbC03Ljk1OSA0LjU0MnoiLz48cGF0aCBkPSJtMy41NDEgMTEuMDEgOC4wMyA0LjU4OXYtOS4wMDlsLTguMDMtNC41OXoiLz48cGF0aCBkPSJtMTIuMDQyIDI1LjQxIDguMDI5IDQuNTl2LTkuMDQzbC04LjAyOS00LjU4OXoiLz48L2c+PC9zdmc+;" vertex="1" parent="mlIezlcVOvS0-Pfn6lKf-58">
          <mxGeometry x="50" y="389" width="92" height="92" as="geometry" />
        </mxCell>
        <mxCell id="mlIezlcVOvS0-Pfn6lKf-72" value="" style="sketch=0;points=[[0,0,0],[0.25,0,0],[0.5,0,0],[0.75,0,0],[1,0,0],[0,1,0],[0.25,1,0],[0.5,1,0],[0.75,1,0],[1,1,0],[0,0.25,0],[0,0.5,0],[0,0.75,0],[1,0.25,0],[1,0.5,0],[1,0.75,0]];outlineConnect=0;fontColor=#232F3E;fillColor=#002AFF;strokeColor=#ffffff;dashed=0;verticalLabelPosition=bottom;verticalAlign=top;align=center;html=1;fontSize=12;fontStyle=0;aspect=fixed;shape=mxgraph.aws4.resourceIcon;resIcon=mxgraph.aws4.codedeploy;" vertex="1" parent="mlIezlcVOvS0-Pfn6lKf-58">
          <mxGeometry x="90.99999999999994" y="650" width="78" height="78" as="geometry" />
        </mxCell>
        <mxCell id="mlIezlcVOvS0-Pfn6lKf-92" style="edgeStyle=orthogonalEdgeStyle;rounded=0;orthogonalLoop=1;jettySize=auto;html=1;entryX=1;entryY=0.5;entryDx=0;entryDy=0;entryPerimeter=0;exitX=1;exitY=0.5;exitDx=0;exitDy=0;exitPerimeter=0;" edge="1" parent="mlIezlcVOvS0-Pfn6lKf-58" source="mlIezlcVOvS0-Pfn6lKf-73" target="mlIezlcVOvS0-Pfn6lKf-72">
          <mxGeometry relative="1" as="geometry" />
        </mxCell>
        <mxCell id="mlIezlcVOvS0-Pfn6lKf-96" value="AWS CodeDeploy" style="text;html=1;align=center;verticalAlign=middle;whiteSpace=wrap;rounded=0;fontStyle=1" vertex="1" parent="mlIezlcVOvS0-Pfn6lKf-58">
          <mxGeometry x="70" y="728" width="120" height="30" as="geometry" />
        </mxCell>
        <mxCell id="mlIezlcVOvS0-Pfn6lKf-97" value="AWS CodeBuild" style="text;html=1;align=center;verticalAlign=middle;whiteSpace=wrap;rounded=0;fontStyle=1" vertex="1" parent="mlIezlcVOvS0-Pfn6lKf-58">
          <mxGeometry x="110" y="208" width="120" height="30" as="geometry" />
        </mxCell>
        <mxCell id="mlIezlcVOvS0-Pfn6lKf-100" value="Terraform" style="text;html=1;align=center;verticalAlign=middle;whiteSpace=wrap;rounded=0;fontStyle=1" vertex="1" parent="mlIezlcVOvS0-Pfn6lKf-58">
          <mxGeometry x="36" y="481" width="120" height="30" as="geometry" />
        </mxCell>
        <mxCell id="mlIezlcVOvS0-Pfn6lKf-60" value="AWS Cloud - App Infra" style="points=[[0,0],[0.25,0],[0.5,0],[0.75,0],[1,0],[1,0.25],[1,0.5],[1,0.75],[1,1],[0.75,1],[0.5,1],[0.25,1],[0,1],[0,0.75],[0,0.5],[0,0.25]];outlineConnect=0;gradientColor=none;html=1;whiteSpace=wrap;fontSize=12;fontStyle=0;container=1;pointerEvents=0;collapsible=0;recursiveResize=0;shape=mxgraph.aws4.group;grIcon=mxgraph.aws4.group_aws_cloud_alt;strokeColor=#232F3E;fillColor=none;verticalAlign=top;align=left;spacingLeft=30;fontColor=#232F3E;dashed=0;" vertex="1" parent="1">
          <mxGeometry x="260" y="340" width="1180" height="870" as="geometry" />
        </mxCell>
        <mxCell id="mlIezlcVOvS0-Pfn6lKf-43" value="" style="sketch=0;points=[[0,0,0],[0.25,0,0],[0.5,0,0],[0.75,0,0],[1,0,0],[0,1,0],[0.25,1,0],[0.5,1,0],[0.75,1,0],[1,1,0],[0,0.25,0],[0,0.5,0],[0,0.75,0],[1,0.25,0],[1,0.5,0],[1,0.75,0]];outlineConnect=0;fontColor=#232F3E;fillColor=#ED7100;strokeColor=#ffffff;dashed=0;verticalLabelPosition=bottom;verticalAlign=top;align=center;html=1;fontSize=12;fontStyle=0;aspect=fixed;shape=mxgraph.aws4.resourceIcon;resIcon=mxgraph.aws4.ecr;" vertex="1" parent="mlIezlcVOvS0-Pfn6lKf-60">
          <mxGeometry x="1010" y="130" width="78" height="78" as="geometry" />
        </mxCell>
        <mxCell id="mlIezlcVOvS0-Pfn6lKf-95" value="AWS ECR" style="text;html=1;align=center;verticalAlign=middle;whiteSpace=wrap;rounded=0;fontStyle=1" vertex="1" parent="mlIezlcVOvS0-Pfn6lKf-60">
          <mxGeometry x="989" y="100" width="120" height="30" as="geometry" />
        </mxCell>
        <mxCell id="mlIezlcVOvS0-Pfn6lKf-103" value="AWS API Gateway" style="text;html=1;align=center;verticalAlign=middle;whiteSpace=wrap;rounded=0;fontStyle=1" vertex="1" parent="mlIezlcVOvS0-Pfn6lKf-60">
          <mxGeometry x="70" y="457" width="120" height="30" as="geometry" />
        </mxCell>
        <mxCell id="mlIezlcVOvS0-Pfn6lKf-106" style="edgeStyle=orthogonalEdgeStyle;rounded=0;orthogonalLoop=1;jettySize=auto;html=1;" edge="1" parent="1" source="mlIezlcVOvS0-Pfn6lKf-61" target="mlIezlcVOvS0-Pfn6lKf-73">
          <mxGeometry relative="1" as="geometry" />
        </mxCell>
        <mxCell id="mlIezlcVOvS0-Pfn6lKf-61" value="" style="dashed=0;outlineConnect=0;html=1;align=center;labelPosition=center;verticalLabelPosition=bottom;verticalAlign=top;shape=mxgraph.weblogos.github" vertex="1" parent="1">
          <mxGeometry x="1671" y="230" width="75" height="75" as="geometry" />
        </mxCell>
        <mxCell id="mlIezlcVOvS0-Pfn6lKf-88" style="edgeStyle=orthogonalEdgeStyle;rounded=0;orthogonalLoop=1;jettySize=auto;html=1;" edge="1" parent="1" source="mlIezlcVOvS0-Pfn6lKf-72" target="mlIezlcVOvS0-Pfn6lKf-46">
          <mxGeometry relative="1" as="geometry" />
        </mxCell>
        <mxCell id="mlIezlcVOvS0-Pfn6lKf-91" style="edgeStyle=orthogonalEdgeStyle;rounded=0;orthogonalLoop=1;jettySize=auto;html=1;entryX=1;entryY=0.5;entryDx=0;entryDy=0;entryPerimeter=0;" edge="1" parent="1" source="mlIezlcVOvS0-Pfn6lKf-73" target="mlIezlcVOvS0-Pfn6lKf-43">
          <mxGeometry relative="1" as="geometry" />
        </mxCell>
        <mxCell id="mlIezlcVOvS0-Pfn6lKf-94" style="edgeStyle=orthogonalEdgeStyle;rounded=0;orthogonalLoop=1;jettySize=auto;html=1;exitX=0;exitY=0.5;exitDx=0;exitDy=0;" edge="1" parent="1" source="mlIezlcVOvS0-Pfn6lKf-70" target="mlIezlcVOvS0-Pfn6lKf-60">
          <mxGeometry relative="1" as="geometry" />
        </mxCell>
        <mxCell id="mlIezlcVOvS0-Pfn6lKf-104" value="Github - Source Code" style="text;html=1;align=center;verticalAlign=middle;whiteSpace=wrap;rounded=0;fontStyle=1" vertex="1" parent="1">
          <mxGeometry x="1648.5" y="190" width="120" height="30" as="geometry" />
        </mxCell>
      </root>
    </mxGraphModel>
  </diagram>
</mxfile>
